<svg xmlns="http://www.w3.org/2000/svg" viewBox="0 0 793.09 792.3"><defs><style>.cls-1{fill:#334e68;}.cls-2{fill:#345260;}.cls-3{fill:#00a97d;}.cls-4{fill:#00b183;}.cls-5{fill:#d9e2ec;}.cls-6{font-size:64.32px;}.cls-6,.cls-7{fill:#fff;font-family:ProximaNova-Black, Proxima Nova;font-weight:800;}.cls-7{font-size:120px;}</style></defs><title>Ambassador</title><g id="Layer_2" data-name="Layer 2"><g id="DESIGN_3"><g id="Layer_6_copy" data-name="Layer 6 copy"><path class="cls-1" d="M290.69,56.29v67.58a23.74,23.74,0,0,0-7.79,17.59v12.11a23.82,23.82,0,0,0,23.8,23.79h8.66a88.18,88.18,0,0,0,48,59.87v27.85l-18.85,18.86-71.05,19.74A75.92,75.92,0,0,0,218,376.62v4.06a6.49,6.49,0,1,0,13,0v-4.06a62.89,62.89,0,0,1,45.94-60.43l42.79-11.89,24,76.17a6.37,6.37,0,0,0,1.48,2.52l40.62,42.68H296.75V405.34a6.49,6.49,0,0,0-13,0v20.33H231V410.91a6.49,6.49,0,0,0-13,0v21.25a6.5,6.5,0,0,0,6.49,6.49h353a6.5,6.5,0,0,0,6.49-6.49V410.91a6.49,6.49,0,0,0-13,0v14.76H518.23V405.34a6.49,6.49,0,0,0-13,0v20.33H416.13L456.75,383a6.44,6.44,0,0,0,1.48-2.52l24-76.17,42.79,11.89A62.88,62.88,0,0,1,571,376.62v4.06a6.49,6.49,0,1,0,13,0v-4.06a75.92,75.92,0,0,0-55.45-72.94l-71-19.74-18.85-18.86V237.22a88.14,88.14,0,0,0,48-59.86h8.66a23.82,23.82,0,0,0,23.8-23.79V141.45a23.72,23.72,0,0,0-7.79-17.58V13h29.42V76.25a22.06,22.06,0,0,0,0,42.17v16.11a6.49,6.49,0,1,0,13,0V118.42a22.06,22.06,0,0,0,0-42.17V13h6.49a6.49,6.49,0,0,0,0-13H241.81a6.49,6.49,0,0,0,0,13h48.88V56.29Zm13-30.3V13H498.33V89.11H303.67V26Zm243.55,80.43a9.09,9.09,0,1,1,9.08-9.09A9.1,9.1,0,0,1,547.22,106.42ZM389.88,358.18h22.24l8.74,43.7L401,422.74l-19.86-20.86Zm24.6-13h-27l-11-12.66L401,308.1l24.45,24.45Zm17.71-24.28-22-22,22-22,13.47,13.47Zm73.93-167.36a10.83,10.83,0,0,1-10.82,10.81h-6.49V130.64h6.49a10.83,10.83,0,0,1,10.82,10.82Zm-7.79-35.71a25.14,25.14,0,0,0-3-.2h-6.49V102.09h9.52ZM303.67,102.09h9.52v15.58H306.7a25.15,25.15,0,0,0-3,.19Zm9.52,62.3H306.7a10.83,10.83,0,0,1-10.82-10.82V141.46a10.83,10.83,0,0,1,10.82-10.82h6.49Zm13-6.49V102.09H475.84V157.9a74.84,74.84,0,0,1-149.68,0ZM401,245.71a87.34,87.34,0,0,0,24.66-3.53v22.9L401,289.74l-24.66-24.66v-22.9A87.34,87.34,0,0,0,401,245.71ZM369.85,277l22,22-22,22-13.43-30.51Zm-37.62,23.87,13-3.6,16.53,37.58a6.61,6.61,0,0,0,.36.7,1.63,1.63,0,0,0,.11.17c.09.15.19.29.29.43l.17.21.13.17,14.78,17.06-7.36,36.84-14.52-15.25Zm114.08,74.31-14.52,15.25-7.36-36.84,14.78-17.06.13-.17.17-.21c.1-.14.2-.28.29-.43a1.08,1.08,0,0,0,.11-.18,5.64,5.64,0,0,0,.36-.69l16.53-37.58,13,3.6Z"/><rect class="cls-1" x="293.65" y="358.56" width="21.33" height="21.33"/><polyline class="cls-2" points="70 502.31 157 538.3 157 396.31 70 502.31"/><polygon class="cls-3" points="0 443.31 42 489.31 21 552.3 168 516.3 143 402.31 0 443.31"/><polygon class="cls-3" points="793.09 452.27 746.52 493.63 760.82 558.48 618.38 507.31 655.16 396.55 793.09 452.27"/><polyline class="cls-2" points="70 502.31 157 538.3 157 396.31 70 502.31"/><polyline class="cls-2" points="710 502.31 623 538.3 623 396.31 710 502.31"/><polygon class="cls-1" points="117 455.31 669 455.31 669 617.3 393 792.3 117 624.3 117 455.31"/><path class="cls-4" d="M71,502.3s300-87,640,0l21-129s-338-98.4-678,0Z"/><path class="cls-5" d="M426,688.83q-7.86,7.68-15.72,15.36a1.22,1.22,0,0,0-.39,1.23q1.83,10.5,3.62,21a1.31,1.31,0,0,1-.52,1.41,1.37,1.37,0,0,1-1.56,0q-6.07-3.21-12.17-6.4c-2.21-1.16-4.43-2.31-6.64-3.5a1.24,1.24,0,0,0-1.3,0q-9.27,4.9-18.57,9.77a3.58,3.58,0,0,1-.79.33,1.3,1.3,0,0,1-1.49-1.65q.58-3.48,1.19-6.94,1.21-7.08,2.45-14.18a1.12,1.12,0,0,0-.41-1.11l-15.18-14.78a1.74,1.74,0,0,1-.56-.8,1.31,1.31,0,0,1,1.15-1.63c3.08-.46,6.17-.9,9.26-1.35,4-.58,8.05-1.17,12.08-1.74a1.13,1.13,0,0,0,.89-.77q4.56-9.27,9.13-18.53c.08-.15.17-.31.24-.47a1.32,1.32,0,0,1,1.31-.94,1.36,1.36,0,0,1,1.24.94l6.06,12.26c1.11,2.25,2.22,4.48,3.31,6.74a1.24,1.24,0,0,0,1.09.79c4.42.62,8.84,1.27,13.26,1.91,2.56.38,5.12.77,7.68,1.12a1.67,1.67,0,0,1,1.34.86Z"/><path class="cls-5" d="M499,655l-10.64,10.4a.82.82,0,0,0-.26.83q1.23,7.11,2.45,14.21a.91.91,0,0,1-1.41.95l-8.24-4.33c-1.5-.79-3-1.57-4.49-2.37a.82.82,0,0,0-.88,0L463,681.33a2.31,2.31,0,0,1-.54.23.89.89,0,0,1-1-1.12l.81-4.69q.82-4.8,1.66-9.6a.76.76,0,0,0-.28-.75q-5.14-5-10.27-10a1.23,1.23,0,0,1-.39-.54.88.88,0,0,1,.78-1.1l6.27-.91c2.73-.4,5.45-.8,8.18-1.18a.77.77,0,0,0,.6-.53L475,638.6c.06-.11.11-.22.16-.33a.91.91,0,0,1,1.73,0q2,4.15,4.1,8.3c.75,1.52,1.51,3,2.24,4.56a.85.85,0,0,0,.74.54c3,.42,6,.86,9,1.3l5.19.75a1.15,1.15,0,0,1,.91.58Z"/><path class="cls-5" d="M320,655l-10.64,10.4a.82.82,0,0,0-.26.83q1.23,7.11,2.45,14.21a.91.91,0,0,1-1.41.95l-8.24-4.33c-1.5-.79-3-1.57-4.49-2.37a.82.82,0,0,0-.88,0L284,681.33a2.31,2.31,0,0,1-.54.23.89.89,0,0,1-1-1.12l.81-4.69q.82-4.8,1.66-9.6a.76.76,0,0,0-.28-.75q-5.14-5-10.27-10a1.23,1.23,0,0,1-.39-.54.88.88,0,0,1,.78-1.1l6.27-.91c2.73-.4,5.45-.8,8.18-1.18a.77.77,0,0,0,.6-.53L296,638.6c.06-.11.11-.22.16-.33a.91.91,0,0,1,1.73,0q2,4.15,4.1,8.3c.75,1.52,1.51,3,2.24,4.56a.85.85,0,0,0,.74.54c3,.42,6,.86,9,1.3l5.19.75a1.15,1.15,0,0,1,.91.58Z"/><text class="cls-6" transform="translate(163.53 586.61)">AMBASSADOR</text><text class="cls-7" transform="translate(161.98 460.86) rotate(-7.98)">W</text><text class="cls-7" transform="translate(284.26 444.88) rotate(-3.43)">Y</text><text class="cls-7" transform="translate(372.91 439.3) rotate(0.74)">W</text><text class="cls-7" transform="translate(496 441.29) rotate(5.67)">M</text><path class="cls-1" d="M288.89,258.13a4.11,4.11,0,0,0,.55-6.82c.09-.07,0-.21-.55-.55h0l-12.27-8.18-8.3-16.66a4.62,4.62,0,0,0-7.93,0l-8.31,16.64-12.3,8.18h0a4.42,4.42,0,0,0,0,7.36l12.3,8.19,8.32,16.65a4.43,4.43,0,0,0,7.92,0l8.32-16.65Zm-19.69,3.19-4.89,9.78-4.86-9.78a4.53,4.53,0,0,0-1.51-1.71l-7.79-5.17,7.76-5.16a4.59,4.59,0,0,0,1.5-1.71l4.9-9.78,4.89,9.78a4.53,4.53,0,0,0,1.51,1.71l7.76,5.16-7.76,5.17A4.53,4.53,0,0,0,269.2,261.32Z"/><path class="cls-1" d="M271.81,92.58a5.76,5.76,0,0,0,.77-9.57c.13-.1-.06-.3-.77-.77h0L254.54,70.75,242.88,47.34a6.47,6.47,0,0,0-11.13,0L220.07,70.72,202.8,82.21h0a6.21,6.21,0,0,0,0,10.33L220,104.06l11.69,23.38a6.21,6.21,0,0,0,11.12,0l11.69-23.38Zm-27.66,4.48-6.87,13.75-6.83-13.75a6.34,6.34,0,0,0-2.12-2.39l-10.94-7.26,10.89-7.26a6.29,6.29,0,0,0,2.12-2.4L237.28,64l6.87,13.74a6.35,6.35,0,0,0,2.11,2.4l10.91,7.26-10.91,7.26A6.4,6.4,0,0,0,244.15,97.06Z"/><path class="cls-1" d="M566.37,195.31a3.18,3.18,0,0,0,.42-5.27c.07-.06,0-.17-.42-.43h0l-9.51-6.33-6.43-12.91a3.57,3.57,0,0,0-6.13,0l-6.44,12.89-9.52,6.33h0a3.42,3.42,0,0,0,0,5.7l9.52,6.35,6.45,12.89a3.42,3.42,0,0,0,6.13,0l6.44-12.89Zm-15.25,2.48-3.79,7.57-3.77-7.57a3.44,3.44,0,0,0-1.16-1.32l-6-4,6-4a3.52,3.52,0,0,0,1.16-1.32l3.8-7.58,3.79,7.58a3.52,3.52,0,0,0,1.16,1.32l6,4-6,4A3.44,3.44,0,0,0,551.12,197.79Z"/></g></g></g></svg>