<svg xmlns="http://www.w3.org/2000/svg" viewBox="0 0 793.09 792.3"><defs><style>.cls-1{fill:#334e68;}.cls-2{fill:#345260;}.cls-3{fill:#00a97d;}.cls-4{fill:#00b183;}.cls-5{fill:#d9e2ec;}.cls-6{font-size:58.66px;}.cls-10,.cls-6{fill:#fff;font-family:ProximaNova-Black, Proxima Nova;font-weight:800;}.cls-7{letter-spacing:-0.03em;}.cls-8{letter-spacing:-0.13em;}.cls-9{letter-spacing:-0.02em;}.cls-10{font-size:120px;}</style></defs><title>CSA</title><g id="Layer_2" data-name="Layer 2"><g id="DESIGN_3"><g id="Layer_6_copy" data-name="Layer 6 copy"><path class="cls-1" d="M600.37,292.77a7,7,0,0,0-7-6.63h-20v14h13.32l.65,13.23A14,14,0,0,1,574.1,328h-.66v14a28,28,0,0,0,27.94-28c0-.44,0-.88,0-1.33Z"/><path class="cls-1" d="M196.58,314.05V300.1H315.22v-14H224.49V97.71a21,21,0,0,1,20.94-20.94V272.18h14V34.89A21,21,0,0,1,280.32,14H503.65a21,21,0,0,1,20.94,20.93V160.52h14V76.77a21,21,0,0,1,20.93,20.94V202.39h14V97.71a34.93,34.93,0,0,0-34.89-34.9V34.89A34.94,34.94,0,0,0,503.65,0H280.32a34.93,34.93,0,0,0-34.89,34.89V62.81a34.94,34.94,0,0,0-34.9,34.9V286.14H189.6a7,7,0,0,0-7,7v20.93A27.94,27.94,0,0,0,210.53,342H336.16V328H210.53A14,14,0,0,1,196.58,314.05Z"/><path class="cls-1" d="M447.82,174.47a90.73,90.73,0,1,0,90.47,97.71h.26v-7a90.84,90.84,0,0,0-90.73-90.73Zm0,167.5a76.77,76.77,0,1,1,76.77-76.77A76.77,76.77,0,0,1,447.82,342Z"/><path class="cls-1" d="M273.35,27.92H287.3V41.87H273.35Z"/><path class="cls-1" d="M301.26,27.92h14V41.87h-14Z"/><path class="cls-1" d="M329.18,27.92h14V41.87h-14Z"/><path class="cls-1" d="M273.35,55.83H510.63v14H273.35Z"/><path class="cls-1" d="M548.42,328a118.74,118.74,0,1,0-37.78,37.78l45.11,45.11a26.71,26.71,0,0,0,37.78-37.78Zm-100.6,41.87A104.69,104.69,0,1,1,552.5,265.2,104.68,104.68,0,0,1,447.82,369.89Zm126.82,34.89a12.65,12.65,0,0,1-9-3.74l-43.46-43.45a119.8,119.8,0,0,0,18-18L583.66,383a12.76,12.76,0,0,1-9,21.78Z"/><path class="cls-1" d="M482.72,258.22v-7a34.9,34.9,0,0,0-65.12-17.45l12.08,7a20.94,20.94,0,0,1,39.08,10.46v7H412.93a7,7,0,0,0-7,7v41.88a7,7,0,0,0,7,7h69.79a7,7,0,0,0,7-7V265.2a7,7,0,0,0-7-7Zm-7,41.88H419.9V272.18h55.84Z"/><path class="cls-1" d="M315.22,125.62v-14a20.94,20.94,0,0,0-41.87,0v14a20.94,20.94,0,1,0,41.87,0Zm-27.92,0v-14a7,7,0,0,1,14,0v14a7,7,0,0,1-14,0Z"/><path class="cls-1" d="M357.09,111.66v14a20.94,20.94,0,0,0,41.88,0v-14a20.94,20.94,0,0,0-41.88,0Zm27.92,0v14a7,7,0,0,1-14,0v-14a7,7,0,0,1,14,0Z"/><path class="cls-1" d="M467.83,129.11l12.08,7a21,21,0,0,0,2.81-10.48v-14a20.94,20.94,0,0,0-41.88,0v14a21,21,0,0,0,2.81,10.48l12.08-7a6.79,6.79,0,0,1-.93-3.49v-14a7,7,0,0,1,14,0v14a7,7,0,0,1-.93,3.49Z"/><path class="cls-1" d="M329.18,97.71h14v41.87h-14Z"/><path class="cls-1" d="M412.93,97.71h13.95v41.87H412.93Z"/><path class="cls-1" d="M280.32,160.52h14v41.87h-14Z"/><path class="cls-1" d="M308.24,160.52h14v41.87h-14Z"/><path class="cls-1" d="M273.35,251.24a20.94,20.94,0,1,0,41.87,0v-14a20.94,20.94,0,1,0-41.87,0Zm13.95-14a7,7,0,0,1,14,0v14a7,7,0,0,1-14,0Z"/><path class="cls-1" d="M496.67,97.71h14v41.87h-14Z"/><rect class="cls-1" x="293.65" y="358.56" width="21.33" height="21.33"/><polyline class="cls-2" points="70 502.31 157 538.3 157 396.31 70 502.31"/><polygon class="cls-3" points="0 443.31 42 489.31 21 552.3 168 516.3 143 402.31 0 443.31"/><polygon class="cls-3" points="793.09 452.27 746.52 493.63 760.82 558.48 618.38 507.31 655.16 396.55 793.09 452.27"/><polyline class="cls-2" points="70 502.31 157 538.3 157 396.31 70 502.31"/><polyline class="cls-2" points="710 502.31 623 538.3 623 396.31 710 502.31"/><polygon class="cls-1" points="117 455.31 669 455.31 669 617.3 393 792.3 117 624.3 117 455.31"/><path class="cls-4" d="M70,502.3s300-87,640,0l21-129s-338-98.4-678,0Z"/><path class="cls-5" d="M426,688.83q-7.86,7.68-15.72,15.36a1.22,1.22,0,0,0-.39,1.23q1.83,10.5,3.62,21a1.31,1.31,0,0,1-.52,1.41,1.37,1.37,0,0,1-1.56,0q-6.07-3.21-12.17-6.4c-2.21-1.16-4.43-2.31-6.64-3.5a1.24,1.24,0,0,0-1.3,0q-9.27,4.9-18.57,9.77a3.58,3.58,0,0,1-.79.33,1.3,1.3,0,0,1-1.49-1.65q.58-3.48,1.19-6.94,1.21-7.08,2.45-14.18a1.12,1.12,0,0,0-.41-1.11l-15.18-14.78a1.74,1.74,0,0,1-.56-.8,1.31,1.31,0,0,1,1.15-1.63c3.08-.46,6.17-.9,9.26-1.35,4-.58,8.05-1.17,12.08-1.74a1.13,1.13,0,0,0,.89-.77q4.56-9.27,9.13-18.53c.08-.15.17-.31.24-.47a1.32,1.32,0,0,1,1.31-.94,1.36,1.36,0,0,1,1.24.94l6.06,12.26c1.11,2.25,2.22,4.48,3.31,6.74a1.24,1.24,0,0,0,1.09.79c4.42.62,8.84,1.27,13.26,1.91,2.56.38,5.12.77,7.68,1.12a1.67,1.67,0,0,1,1.34.86Z"/><text class="cls-6" transform="translate(144.77 562.38)"><tspan class="cls-7">C</tspan><tspan x="39.12" y="0">YBER SECURITY</tspan><tspan x="118.22" y="61">ANA</tspan><tspan class="cls-8" x="245.5" y="61">L</tspan><tspan class="cls-9" x="269.32" y="61">Y</tspan><tspan x="307.09" y="61">ST</tspan></text><text class="cls-10" transform="translate(161.98 460.86) rotate(-7.98)">W</text><text class="cls-10" transform="translate(284.26 444.88) rotate(-3.43)">Y</text><text class="cls-10" transform="translate(372.91 439.3) rotate(0.74)">W</text><text class="cls-10" transform="translate(496 441.29) rotate(5.67)">M</text></g></g></g></svg>