<svg xmlns="http://www.w3.org/2000/svg" viewBox="0 0 793.09 825.3"><defs><style>.cls-1{fill:#334e68;}.cls-13,.cls-2,.cls-7{fill:#fff;}.cls-3{fill:#345260;}.cls-4{fill:#00a97d;}.cls-5{fill:#00b183;}.cls-6{fill:#d9e2ec;}.cls-7{font-size:80px;}.cls-13,.cls-7{font-family:ProximaNova-Black, Proxima Nova;font-weight:800;}.cls-8{letter-spacing:-0.03em;}.cls-9{letter-spacing:-0.06em;}.cls-10{letter-spacing:0em;}.cls-11{letter-spacing:-0.13em;}.cls-12{letter-spacing:-0.02em;}.cls-13{font-size:120px;}</style></defs><title>Data Analyst</title><g id="Layer_2" data-name="Layer 2"><g id="DESIGN_3"><g id="Layer_6_copy" data-name="Layer 6 copy"><path class="cls-1" d="M623.28,245.25l-28.87-28.87-17.36,8.69-6.14-18.42H530.09L524,225.07l-17.36-8.69-28.86,28.87,8.69,17.37L468,268.75v40.82l18.42,6.13-8.69,17.37,28.87,28.86L524,353.25l6.14,18.43h40.82l6.14-18.42,17.36,8.68,28.86-28.86-8.69-17.37L633,309.58V268.76l-18.42-6.14ZM618,279.57v19.19l-17.24,5.75-1.26,3.34c-.36.95-.73,1.89-1.15,2.81l-1.45,3.25L605,330.13,591.45,343.7l-16.22-8.11L572,337c-.94.42-1.88.79-2.84,1.17l-3.31,1.26-5.74,17.2H540.9l-5.74-17.2-3.31-1.27c-1-.38-1.91-.75-2.84-1.17l-3.25-1.45-16.22,8.11L496,330.12l8.11-16.22-1.45-3.24c-.42-.93-.79-1.86-1.15-2.82l-1.26-3.34L483,298.76v-19.2l17.24-5.74,1.26-3.34c.36-1,.73-1.89,1.15-2.82l1.45-3.24L496,248.2l13.57-13.57,16.22,8.11,3.25-1.46c.94-.42,1.88-.78,2.84-1.16l3.31-1.27,5.74-17.2H560.1l5.74,17.21,3.31,1.27c1,.37,1.91.75,2.84,1.16l3.25,1.46,16.22-8.11L605,248.21l-8.11,16.21,1.45,3.25c.42.92.79,1.86,1.15,2.81l1.26,3.34Z"/><path class="cls-1" d="M550.5,251.66A37.51,37.51,0,1,0,588,289.16,37.55,37.55,0,0,0,550.5,251.66Zm0,60A22.51,22.51,0,1,1,573,289.16,22.53,22.53,0,0,1,550.5,311.67Z"/><path class="cls-1" d="M438,401.68h37.51v30h15v-30h30v30h15v-30h30v30h15v-30h30v30h15v-30H663v-37.5h30v-15H663v-30h30v-15H663v-30h30v-15H663v-30h30v-15H663V176.64H625.51v-30h-15v30h-30v-30h-15v30h-30v-30h-15v30h-30v-30h-15v30h-3.11L438,211v3.11H408v15h30v30H408v15h30v30H408v15h30v30H408v15h30Zm15-184.42,25.61-25.61H648v195H453Z"/><path class="cls-2" d="M429,309.64s48,12,53,75-340,42-340,42,2-54,20-79,43-43,78-55,45-18,46-26,2-18,2-18l26,10,27-10s-3,16,35,36S429,309.64,429,309.64Z"/><path class="cls-1" d="M277.55,174.64a32.38,32.38,0,0,0,32.34-32.34,32.86,32.86,0,0,0-.65-6.47h14.24a32.88,32.88,0,1,0,6-12.93h-26.2a32.29,32.29,0,1,0-25.71,51.74Zm77.62-51.74a19.41,19.41,0,1,1-19.41,19.4A19.42,19.42,0,0,1,355.17,122.9Zm-77.62,0a19.41,19.41,0,1,1-19.41,19.4A19.42,19.42,0,0,1,277.55,122.9Z"/><path class="cls-1" d="M427.11,299.41l-66.35-27.16a19.32,19.32,0,0,1-12.06-18v-4.64A119.76,119.76,0,0,0,392.42,194H394a32.38,32.38,0,0,0,32.34-32.34V70.94A98.11,98.11,0,0,0,443,38.56a14.71,14.71,0,0,0-2.4-13,15.63,15.63,0,0,0-19-4.52l-14.91,7.45a37.54,37.54,0,0,1-40-4.64A103,103,0,0,0,300.91,0h-5.72A88.89,88.89,0,0,0,206.4,88.8v72.91a32.38,32.38,0,0,0,32.34,32.34h1.56A119.61,119.61,0,0,0,284,249.65v4.65A19.3,19.3,0,0,1,272,272.25L205.6,299.4a102.44,102.44,0,0,0-63.88,95.16V401H491v-6.47a102.43,102.43,0,0,0-63.89-95.15ZM259.19,324.52l-12.06-28.13,17.35-7.1,16.23,59.52,14-14-2.78,22.24a62,62,0,0,1-32.7-32.57ZM309.57,320l6.79-6.79,6.79,6.79,5.12,41a55.67,55.67,0,0,1-23.83,0Zm31.26,37.14-2.78-22.24,14,14,16.23-59.52,17.35,7.1-12.06,28.13A62,62,0,0,1,340.83,357.09Zm15.34-72.73-10.78,39.53-19.58-19.57L351.36,282a33.67,33.67,0,0,0,4.49,2.26ZM390.94,99.91a100.22,100.22,0,0,0,22.44-15.12V136a32.07,32.07,0,0,0-12.94-6v-4.63a38.64,38.64,0,0,0-9.5-25.48Zm5.71,80.93a119.78,119.78,0,0,0,3.79-29.8v-7.55a19.3,19.3,0,0,1-3.79,37.35ZM295.19,12.94h5.72A90,90,0,0,1,358.4,33.75,50.75,50.75,0,0,0,412.48,40l14.91-7.46a2.57,2.57,0,0,1,2.84.71,1.82,1.82,0,0,1,.33,1.65A86.83,86.83,0,0,1,347.63,97H338a86.17,86.17,0,0,1-47.93-14.51l-19.35-12.9-23.9,19.12A38.64,38.64,0,0,0,232.27,119v11a32.25,32.25,0,0,0-12.94,6V88.79a75.94,75.94,0,0,1,75.86-75.85ZM219.33,161.71a19.38,19.38,0,0,1,12.94-18.22V151a120.25,120.25,0,0,0,3.79,29.8A19.38,19.38,0,0,1,219.33,161.71ZM245.21,151V119a25.75,25.75,0,0,1,9.71-20.2l16.51-13.21,11.47,7.65A99.05,99.05,0,0,0,338,110h9.61a98.22,98.22,0,0,0,30.2-4.76,25.72,25.72,0,0,1,9.68,20.19V151a106.9,106.9,0,0,1-71.15,100.85A106.9,106.9,0,0,1,245.21,151Zm69.1,113.83,2.05.68,2-.68A121.52,121.52,0,0,0,336,257.42a32,32,0,0,0,5.85,15.69l-25.48,22.3-25.49-22.3a32.11,32.11,0,0,0,5.85-15.69,123.12,123.12,0,0,0,17.59,7.45Zm-33,17.09,25.54,22.36-19.57,19.56-10.78-39.53.31-.13a31,31,0,0,0,4.5-2.26Zm145,106.13V349.28H413.38v38.81h-194V349.28H206.4v38.81H154.88a89.52,89.52,0,0,1,55.62-76.72l24.66-10.09,12.14,28.33a75.12,75.12,0,0,0,138.11,0l12.14-28.33,24.67,10.09a89.53,89.53,0,0,1,55.62,76.71Z"/><rect class="cls-1" x="293.65" y="391.55" width="21.33" height="21.33"/><polyline class="cls-3" points="70 535.3 157 571.3 157 429.3 70 535.3"/><polygon class="cls-4" points="0 476.3 42 522.3 21 585.3 168 549.3 143 435.3 0 476.3"/><polygon class="cls-4" points="793.09 485.26 746.52 526.62 760.82 591.47 618.38 540.3 655.16 429.54 793.09 485.26"/><polyline class="cls-3" points="70 535.3 157 571.3 157 429.3 70 535.3"/><polyline class="cls-3" points="710 535.3 623 571.3 623 429.3 710 535.3"/><polygon class="cls-1" points="117 488.3 669 488.3 669 650.3 393 825.3 117 657.3 117 488.3"/><path class="cls-5" d="M70,535.3s300-87,640,0l21-129s-338-98.41-678,0Z"/><path class="cls-6" d="M426,721.82q-7.86,7.7-15.72,15.37a1.22,1.22,0,0,0-.39,1.23q1.83,10.49,3.62,21a1.32,1.32,0,0,1-.52,1.41,1.37,1.37,0,0,1-1.56,0l-12.17-6.39c-2.21-1.17-4.43-2.32-6.64-3.5a1.22,1.22,0,0,0-1.3,0q-9.27,4.89-18.57,9.76a3.58,3.58,0,0,1-.79.33,1.3,1.3,0,0,1-1.49-1.65q.58-3.46,1.19-6.93,1.21-7.1,2.45-14.19a1.11,1.11,0,0,0-.41-1.1l-15.18-14.79a1.74,1.74,0,0,1-.56-.8,1.31,1.31,0,0,1,1.15-1.63l9.26-1.34,12.08-1.75c.49-.06.69-.37.89-.77q4.56-9.27,9.13-18.52c.08-.16.17-.32.24-.48a1.34,1.34,0,0,1,1.31-.94,1.37,1.37,0,0,1,1.24.94l6.06,12.26c1.11,2.25,2.22,4.49,3.31,6.74a1.27,1.27,0,0,0,1.09.8q6.63.93,13.26,1.91c2.56.37,5.12.76,7.68,1.12a1.66,1.66,0,0,1,1.34.85Z"/><text class="cls-7" transform="translate(288.9 590.21)"><tspan class="cls-8">D<tspan class="cls-9" x="56.48" y="0">AT</tspan><tspan class="cls-10" x="151.28" y="0">A</tspan></tspan><tspan x="-73.08" y="75">ANA</tspan><tspan class="cls-11" x="100.52" y="75">L</tspan><tspan class="cls-12" x="133" y="75">Y</tspan><tspan x="184.52" y="75">ST</tspan></text><text class="cls-13" transform="translate(161.98 493.86) rotate(-7.98)">W</text><text class="cls-13" transform="translate(284.26 477.87) rotate(-3.43)">Y</text><text class="cls-13" transform="translate(372.91 472.29) rotate(0.74)">W</text><text class="cls-13" transform="translate(496 474.28) rotate(5.67)">M</text></g></g></g></svg>