<svg id="Capa_1" data-name="Capa 1" xmlns="http://www.w3.org/2000/svg" viewBox="0 0 512 512"><defs><style>.cls-1{fill:#27ab83;}.cls-2{fill:#334e68;}.cls-3{fill:#243b53;}.cls-4{fill:#f2eae7;}.cls-5{fill:#ede2dd;}.cls-6{fill:#f9f7f7;}.cls-7{fill:#627d98;}.cls-8{fill:#f8f3f2;}.cls-9{fill:#65d6ad;}.cls-10{fill:#102a43;}</style></defs><path class="cls-1" d="M366,17.34h-9.84a18.36,18.36,0,0,0-18.35,18.37V56l7.08,12.65h31.93L384.39,56V35.71A18.37,18.37,0,0,0,366,17.34Z"/><path class="cls-2" d="M494.1,114.86a10.28,10.28,0,0,1,10.28,10.28V462.33a32.33,32.33,0,0,1-32.33,32.32H40A32.32,32.32,0,0,1,7.62,462.33V125.14A10.28,10.28,0,0,1,17.9,114.86Z"/><path class="cls-3" d="M472.26,114.86H40.84V444.1a33.31,33.31,0,0,0,33.28,33.27H439a33.3,33.3,0,0,0,33.27-33.27V114.86Z"/><path class="cls-4" d="M442.83,371.75h-180l-6.22,61.57V457H439a13,13,0,0,0,12.95-12.94v-40Z"/><path class="cls-5" d="M256.81,430.86l-.25,2.46v23.73H439a13,13,0,0,0,12.95-12.95V430.86Z"/><path class="cls-6" d="M451.94,102.75V404.12H309.12a52.55,52.55,0,0,0-52.56,52.56,51,51,0,0,0-.52-7.35V116.56A23.12,23.12,0,0,1,279.15,94h164a8.81,8.81,0,0,1,8.81,8.8Z"/><path class="cls-7" d="M384.39,56V347.1a7,7,0,0,1-1.5,4.34L366.7,372.27a7.09,7.09,0,0,1-11.18,0l-16.19-20.83a7.08,7.08,0,0,1-1.49-4.34V56Z"/><path class="cls-4" d="M256,449.33l-3.37-26.77-18-56.66H85.79L61.17,404.12v40a13,13,0,0,0,13,12.94H256.56v-.36A51,51,0,0,0,256,449.33Z"/><path class="cls-5" d="M253.72,430.86H126.47a19.63,19.63,0,0,1-19.63-19.62V365.9h-21L61.17,404.12v40a13,13,0,0,0,13,12.95H256.56v-.37a51,51,0,0,0-.52-7.35Z"/><path class="cls-8" d="M256,116.56V449.33A52.55,52.55,0,0,0,204,404.12H61.17V102.75A8.8,8.8,0,0,1,70,94H232.81A23.24,23.24,0,0,1,256,116.56Z"/><path class="cls-4" d="M106.84,94H70a8.8,8.8,0,0,0-8.81,8.8V404.12h45.67Z"/><path class="cls-7" d="M174.69,169.7,156.83,163a59.89,59.89,0,0,0-42.35,102.25s44.11-2.41,44.11-2.41l33.16-57.59Z"/><path class="cls-9" d="M156.83,163a59.89,59.89,0,1,1-42.35,102.25l0,0,42.32-42.31Z"/><path class="cls-10" d="M494.1,107.24H459.56v-4.48a16.45,16.45,0,0,0-16.43-16.44H414.87a7.63,7.63,0,0,0,0,15.25h28.26a1.19,1.19,0,0,1,1.19,1.19V396.49H309.12a60,60,0,0,0-45.45,20.81V116.71a15.56,15.56,0,0,1,15.48-15.14h28.2a7.63,7.63,0,0,0,0-15.25h-28.2a30.74,30.74,0,0,0-23.06,10.51,30.74,30.74,0,0,0-23.28-10.51H70a16.45,16.45,0,0,0-16.43,16.44v4.48H17.9A17.92,17.92,0,0,0,0,125.14V462.33a40,40,0,0,0,40,39.95h432.1A40,40,0,0,0,512,462.33V125.14a17.92,17.92,0,0,0-17.9-17.9ZM68.79,411.74H204a45,45,0,0,1,44.35,37.68H74.12a5.33,5.33,0,0,1-5.33-5.32V411.74ZM70,101.57H232.81a15.53,15.53,0,0,1,15.61,15.16v299.4A60,60,0,0,0,204,396.49H68.79V102.76A1.19,1.19,0,0,1,70,101.57ZM496.76,462.33A24.74,24.74,0,0,1,472.05,487H40a24.74,24.74,0,0,1-24.71-24.7V125.14a2.67,2.67,0,0,1,2.66-2.66H53.55V444.1a20.6,20.6,0,0,0,20.57,20.57H322.39a7.63,7.63,0,0,0,0-15.25H264.77a45,45,0,0,1,44.35-37.68H444.31V444.1a5.33,5.33,0,0,1-5.32,5.32H354.87a7.63,7.63,0,0,0,0,15.25H439a20.6,20.6,0,0,0,20.57-20.57V122.48H494.1a2.66,2.66,0,0,1,2.65,2.66V462.33Z"/><path class="cls-10" d="M349.51,377a14.71,14.71,0,0,0,23.21,0l16.19-20.82a14.76,14.76,0,0,0,3.1-9V35.7a26,26,0,0,0-26-26H356.2a26,26,0,0,0-26,26v171a7.62,7.62,0,1,0,15.24,0V63.6h31.3V346.92L361.11,367l-15.65-20.12V239.14a7.62,7.62,0,1,0-15.24,0v108a14.78,14.78,0,0,0,3.1,9ZM345.46,48.36V35.7A10.75,10.75,0,0,1,356.2,25H366A10.74,10.74,0,0,1,376.76,35.7V48.36Z"/><path class="cls-10" d="M156.83,290.41a67.33,67.33,0,0,0,22.64-3.9,7.62,7.62,0,1,0-5.11-14.36,52.24,52.24,0,0,1-48.69-7.31l36.55-36.56a7.6,7.6,0,0,0,2.23-5.39V171.18a52.35,52.35,0,0,1,44.65,51.71,51.69,51.69,0,0,1-11.53,32.74,7.62,7.62,0,1,0,11.87,9.56,67.51,67.51,0,1,0-52.61,25.22Zm-7.62-119.23v48.56l-34.32,34.32a52.25,52.25,0,0,1,34.32-82.88Z"/><path class="cls-10" d="M100.45,138.6H216.73a7.62,7.62,0,1,0,0-15.24H100.45a7.62,7.62,0,1,0,0,15.24Z"/><path class="cls-10" d="M216.73,310.62H100.45a7.62,7.62,0,1,0,0,15.24H216.73a7.62,7.62,0,1,0,0-15.24Z"/><path class="cls-10" d="M216.73,349.58H100.45a7.63,7.63,0,1,0,0,15.25H216.73a7.63,7.63,0,0,0,0-15.25Z"/></svg>