<svg id="Capa_1" data-name="Capa 1" xmlns="http://www.w3.org/2000/svg" viewBox="0 0 512 512"><defs><style>.cls-1{fill:#f9f7f7;}.cls-2{fill:#c6f7e2;}.cls-3{fill:#bcccdc;}.cls-4{fill:#27ab83;}.cls-5{fill:#102a43;}</style></defs><path class="cls-1" d="M19.87,29.75H492.13V382.89H19.87Z"/><path class="cls-2" d="M492.13,72V29.75H19.87V382.89H492.13V346.65H94.76A19.74,19.74,0,0,1,75,326.91V91.77A19.74,19.74,0,0,1,94.76,72Z"/><path class="cls-3" d="M492.13,52H19.87a12,12,0,0,1-12-12V19.5a12,12,0,0,1,12-12H492.13a12,12,0,0,1,12,12V40A12,12,0,0,1,492.13,52Z"/><path class="cls-3" d="M492.13,399.09H19.87a12,12,0,0,1-12-12v-8.44a12,12,0,0,1,12-12H492.13a12,12,0,0,1,12,12v8.44A12,12,0,0,1,492.13,399.09Z"/><path class="cls-4" d="M323.45,296.29a109.62,109.62,0,0,1-68.34,23.09c-59.76-.48-108.61-49.27-109.15-109a110.05,110.05,0,0,1,110.93-111c59.44.47,108.18,48.79,109.14,108.22a109.89,109.89,0,0,1-7.68,42.31,6.72,6.72,0,0,1-10.25,2.91l-20.44-15.28a6.66,6.66,0,0,1-2.41-7.24,72.33,72.33,0,1,0-30,39.85,6.76,6.76,0,0,1,7.73.32l20.37,15.22a6.7,6.7,0,0,1,.07,10.68Z"/><path class="cls-5" d="M511.63,40V19.5A19.53,19.53,0,0,0,492.13,0H19.87A19.53,19.53,0,0,0,.37,19.5V40a19.53,19.53,0,0,0,12,18V360.68a19.53,19.53,0,0,0-12,18v8.44a19.53,19.53,0,0,0,19.5,19.5H92.72a7.52,7.52,0,1,0,0-15H19.87a4.47,4.47,0,0,1-4.47-4.47v-8.44a4.46,4.46,0,0,1,4.46-4.46H492.14a4.46,4.46,0,0,1,4.45,4.46v8.44a4.47,4.47,0,0,1-4.46,4.47H124.82a7.52,7.52,0,0,0,0,15H248.48v54.18h-9.23a25.61,25.61,0,1,0,0,51.21h33.5a25.61,25.61,0,1,0,0-51.21h-9.23V406.61H492.13a19.53,19.53,0,0,0,19.5-19.5v-8.44a19.53,19.53,0,0,0-12-18V58a19.53,19.53,0,0,0,12-18ZM283.32,486.4A10.58,10.58,0,0,1,272.75,497h-33.5a10.58,10.58,0,0,1,0-21.15h33.5A10.59,10.59,0,0,1,283.32,486.4ZM15.4,19.5A4.47,4.47,0,0,1,19.87,15H492.13a4.47,4.47,0,0,1,4.47,4.47V40a4.47,4.47,0,0,1-4.47,4.46h-68.3a7.52,7.52,0,1,0,0,15h60.79V359.17H27.38V59.51H391.73a7.52,7.52,0,0,0,0-15H19.87A4.47,4.47,0,0,1,15.4,40V19.5Z"/><path class="cls-5" d="M379.8,92.28c-14,14.32-29.39,30-37.26,37.7q-1.87-2-3.86-4A116.85,116.85,0,0,0,257,91.79h-1a117.31,117.31,0,0,0-96.14,184.87l-40.18,40.18H58.57a7.52,7.52,0,1,0,0,15h64.21a7.56,7.56,0,0,0,5.32-2.2l41.22-41.23a117.32,117.32,0,0,0,85.73,38.45h1a116.34,116.34,0,0,0,72-24.67,14.23,14.23,0,0,0-.18-22.64l-20.37-15.22a14.35,14.35,0,0,0-16.32-.61,64.63,64.63,0,0,1-69.5.5,7.51,7.51,0,1,0-8,12.73,79.68,79.68,0,0,0,85.18-.31L318,291a101.39,101.39,0,0,1-62,20.89h-.85c-55.57-.44-101.19-46-101.69-101.57A102.54,102.54,0,0,1,256,106.81h.84c55.18.43,100.79,45.67,101.68,100.83a101.84,101.84,0,0,1-6.77,38.43l-19.12-14.29a79.86,79.86,0,1,0-144.17,20,7.52,7.52,0,0,0,12.7-8,64.3,64.3,0,0,1-9.82-30.13,64.81,64.81,0,1,1,126.72,14.4,14.23,14.23,0,0,0,5.11,15.44l20.44,15.27a14.22,14.22,0,0,0,21.73-6.16,117.33,117.33,0,0,0-13.28-110.87c3.67-3.55,9-9,17.22-17.26,7.7-7.8,15.4-15.67,19.07-19.42h61.83a7.52,7.52,0,0,0,0-15h-65a7.53,7.53,0,0,0-5.38,2.26Z"/><path class="cls-5" d="M450.17,133.28H401.64a7.52,7.52,0,0,0,0,15h48.53a7.52,7.52,0,0,0,0-15Z"/><path class="cls-5" d="M450.17,178.82H401.64a7.52,7.52,0,0,0,0,15h48.53a7.52,7.52,0,0,0,0-15Z"/><path class="cls-5" d="M450.17,224.37H401.64a7.52,7.52,0,0,0,0,15h48.53a7.52,7.52,0,0,0,0-15Z"/><path class="cls-5" d="M450.17,269.91H401.64a7.52,7.52,0,0,0,0,15h48.53a7.52,7.52,0,0,0,0-15Z"/><path class="cls-5" d="M58.57,288.53h55.57a7.52,7.52,0,1,0,0-15H58.57a7.52,7.52,0,1,0,0,15Z"/><path class="cls-5" d="M58.57,244.29h55.57a7.52,7.52,0,1,0,0-15H58.57a7.52,7.52,0,1,0,0,15Z"/><path class="cls-5" d="M58.57,200.05h55.57a7.52,7.52,0,1,0,0-15H58.57a7.52,7.52,0,1,0,0,15Z"/><path class="cls-5" d="M58.57,155.81h55.57a7.52,7.52,0,1,0,0-15H58.57a7.52,7.52,0,1,0,0,15Z"/></svg>