<svg xmlns="http://www.w3.org/2000/svg" viewBox="0 0 793.09 843.93"><defs><style>.cls-1{fill:#334e68;}.cls-2{fill:none;}.cls-3{fill:#345260;}.cls-4{fill:#00a97d;}.cls-5{fill:#00b183;}.cls-6{fill:#d9e2ec;}.cls-7{font-size:145.12px;}.cls-13,.cls-7{fill:#fff;font-family:ProximaNova-Black, Proxima Nova;font-weight:800;}.cls-8{letter-spacing:-0.07em;}.cls-9{letter-spacing:0em;}.cls-10{font-size:45.35px;}.cls-11{letter-spacing:-0.1em;}.cls-12{letter-spacing:-0.06em;}.cls-13{font-size:120px;}</style></defs><title>Rpa Consultant</title><g id="Layer_2" data-name="Layer 2"><g id="DESIGN_3"><g id="Layer_6_copy" data-name="Layer 6 copy"><path class="cls-1" d="M390.64,464.06v16h-112v-48h-16v48H198.92a110.73,110.73,0,0,1,68.79-94.89L323,362.57l33.5,67,42.19-42.19V364.75L368.93,335a39.75,39.75,0,0,0,5.42-16.6,150,150,0,0,0,21.76,9.22l2.53.84v-16.9A132.15,132.15,0,0,1,312.2,207.07a23.61,23.61,0,0,0,6.44,1h48a24,24,0,0,0,24-24v-8h8v-16h-9.48a24,24,0,0,0-22.53-16H318.84a39.82,39.82,0,0,1,31.79-16h48v-16h-48a56,56,0,0,0-55.48,48.75,39.58,39.58,0,0,0-16.52,7.45v-32.2a120.13,120.13,0,0,1,120-120V.05c-75,0-136,61-136,136v64a40,40,0,0,0,40,40h1.93a148,148,0,0,0,54.07,68.77v5.75a23.91,23.91,0,0,1-14.91,22.21l-82.07,33.57a126.72,126.72,0,0,0-79,117.7v8h216v-32Zm-112-264a24,24,0,0,1,16-22.53v9.34a148.63,148.63,0,0,0,4.69,36.85A24,24,0,0,1,278.64,200.06Zm32-32a8,8,0,0,1,8-8h48a8,8,0,0,1,8,8v16a8,8,0,0,1-8,8h-48a8,8,0,0,1-8-8Zm39.14,183.53a40.21,40.21,0,0,0,8.34-4.75l29.21,29.22-26.5,26.49-23-46.05Z"/><line class="cls-1" x1="398.98" y1="0.27" x2="398.98" y2="496.27"/><rect class="cls-1" x="390.48" y="0.27" width="17" height="496"/><path class="cls-2" d="M518.41,188.89a6.75,6.75,0,1,0-6.75-6.75A6.75,6.75,0,0,0,518.41,188.89Z"/><rect class="cls-2" x="389.98" y="13.49" width="0.25" height="53.97"/><circle class="cls-2" cx="545.39" cy="134.92" r="6.75"/><path class="cls-2" d="M471.19,229.36a6.75,6.75,0,1,0-6.75-6.74A6.75,6.75,0,0,0,471.19,229.36Z"/><path class="cls-2" d="M437.46,141.67a6.75,6.75,0,1,0,6.74,6.74A6.75,6.75,0,0,0,437.46,141.67Z"/><circle class="cls-2" cx="471.19" cy="317.06" r="6.75"/><path class="cls-2" d="M491.42,222.62a20.19,20.19,0,0,1-13.49,19V260.3l33.73-33.73V201.14a20.25,20.25,0,0,1-12.25-12.25H477.93v14.73A20.19,20.19,0,0,1,491.42,222.62Z"/><path class="cls-2" d="M390.23,338.62V296.48l-.25,0v42Z"/><path class="cls-2" d="M390.23,283.14V81H390V283.12Z"/><path class="cls-2" d="M437.46,269.84a6.75,6.75,0,1,0,6.74,6.75A6.75,6.75,0,0,0,437.46,269.84Z"/><path class="cls-2" d="M504.92,323.81H490.18a20.12,20.12,0,0,1-38,0H403.73V337.3H444.2a6.72,6.72,0,0,1,4.77,2l25,25h18.69A20.2,20.2,0,0,1,504.92,352Z"/><path class="cls-2" d="M464.44,298.07V283.33h-8a20.12,20.12,0,0,1-38,0H403.73v27h48.46A20.2,20.2,0,0,1,464.44,298.07Z"/><polygon class="cls-2" points="403.73 350.79 403.73 377.78 427.92 377.78 448.16 357.54 441.41 350.79 403.73 350.79"/><path class="cls-2" d="M430.71,257.59V209.13h-27v60.71h14.73A20.25,20.25,0,0,1,430.71,257.59Z"/><circle class="cls-2" cx="504.92" cy="67.46" r="6.75"/><path class="cls-2" d="M511.66,364.28a6.75,6.75,0,1,0,6.75,6.75A6.76,6.76,0,0,0,511.66,364.28Z"/><circle class="cls-2" cx="545.39" cy="317.06" r="6.75"/><path class="cls-2" d="M430.71,167.41a20.25,20.25,0,0,1-12.25-12.25H403.73v40.47h27Z"/><path class="cls-2" d="M437.46,47.22A6.75,6.75,0,1,0,444.2,54,6.75,6.75,0,0,0,437.46,47.22Z"/><path class="cls-2" d="M437.46,33.73A20.19,20.19,0,0,1,444.2,73v28.23h13.49a6.72,6.72,0,0,1,4.77,2l25,25h10.7V86.46a20.23,20.23,0,0,1-13.49-19,19.88,19.88,0,0,1,2-8.67l-45.3-45.3H403.73V47.22h14.73A20.21,20.21,0,0,1,437.46,33.73Z"/><path class="cls-2" d="M437.46,128.17a20.26,20.26,0,0,1,20.23,20.24h17.45l2.79-2.79v-7.91l-23-23H403.73v27h14.73A20.2,20.2,0,0,1,437.46,128.17Z"/><path class="cls-2" d="M430.71,73a20.2,20.2,0,0,1-12.25-12.25H403.73v40.48h27Z"/><path class="cls-1" d="M599.38,359.51h0L565.6,325.73a19.88,19.88,0,0,0,2-8.67,20.18,20.18,0,0,0-39.23-6.74H492.18a20.2,20.2,0,0,0-12.25-12.25V279.38l45.24-45.25a6.66,6.66,0,0,0,2-4.77V201.14a20.19,20.19,0,1,0-25.74-25.74H473.19a6.74,6.74,0,0,0-6.75,6.74v21.48a20.12,20.12,0,0,0,0,38v28.23h-8a20.2,20.2,0,0,0-12.25-12.25V167.41a20.09,20.09,0,0,0,8.23-5.51h25.5a6.71,6.71,0,0,0,4.77-2l6.75-6.75a6.69,6.69,0,0,0,2-4.77v-6.74h35a20.24,20.24,0,1,0,0-13.5H513.66V86.46a20.19,20.19,0,0,0-6.74-39.24,19.88,19.88,0,0,0-8.67,2L451,2a6.72,6.72,0,0,0-4.77-2H392V13.49h.25v54H392V81h.25V283.14l-.25,0v13.34l.25,0v42.14l-.25-.16v15.91l.25.16v36.74h40.48a6.72,6.72,0,0,0,4.77-2l22.21-22.21,8.73,8.72a6.72,6.72,0,0,0,4.77,2h21.48A20.19,20.19,0,1,0,520.41,352V323.81h8a20.2,20.2,0,0,0,19,13.49,19.88,19.88,0,0,0,8.67-2l8.78,8.78-8.72,8.72a6.7,6.7,0,0,0-2,4.77v42.73h13.49V360.33l6.75-6.74,13.49,13.49v33.19h13.49v-36A6.74,6.74,0,0,0,599.38,359.51Zm-52-231.34a6.75,6.75,0,1,1-6.74,6.75A6.76,6.76,0,0,1,547.39,128.17Zm-27,47.23a6.75,6.75,0,1,1-6.75,6.74A6.74,6.74,0,0,1,520.41,175.4Zm-40.48,13.49h21.48a20.25,20.25,0,0,0,12.25,12.25v25.43L479.93,260.3V241.61a20.12,20.12,0,0,0,0-38Zm-6.74,27a6.75,6.75,0,1,1-6.75,6.75A6.75,6.75,0,0,1,473.19,215.87Zm0,94.45a6.75,6.75,0,1,1-6.75,6.74A6.75,6.75,0,0,1,473.19,310.32ZM439.46,155.16a6.75,6.75,0,1,1,6.74-6.75A6.75,6.75,0,0,1,439.46,155.16Zm6.74,121.43a6.75,6.75,0,1,1-6.74-6.75A6.75,6.75,0,0,1,446.2,276.59ZM506.92,60.71a6.75,6.75,0,1,1-6.75,6.75A6.76,6.76,0,0,1,506.92,60.71ZM405.73,13.49h37.68l45.3,45.3a19.88,19.88,0,0,0-2,8.67,20.23,20.23,0,0,0,13.49,19v41.71h-10.7l-25-25a6.72,6.72,0,0,0-4.77-2H446.2V73a20.19,20.19,0,1,0-25.74-25.74H405.73Zm33.73,47.22A6.75,6.75,0,1,1,446.2,54,6.75,6.75,0,0,1,439.46,60.71Zm-33.73,0h14.73A20.2,20.2,0,0,0,432.71,73v28.23h-27Zm0,54H456.9l23,23v7.91l-2.79,2.79H459.69a20.18,20.18,0,0,0-39.23-6.74H405.73Zm0,40.48h14.73a20.25,20.25,0,0,0,12.25,12.25v28.22h-27Zm0,54h27v48.46a20.25,20.25,0,0,0-12.25,12.25H405.73Zm0,74.2h14.73a20.12,20.12,0,0,0,38,0h8v14.74a20.2,20.2,0,0,0-12.25,12.25H405.73Zm24.19,94.45H405.73v-27h37.68l6.75,6.75Zm64.75-13.5H476l-25-25a6.72,6.72,0,0,0-4.77-2H405.73V323.81h48.46a20.12,20.12,0,0,0,38,0h14.74V352A20.2,20.2,0,0,0,494.67,364.28Zm19,13.5a6.75,6.75,0,1,1,6.75-6.75A6.76,6.76,0,0,1,513.66,377.78Zm33.73-54a6.75,6.75,0,1,1,6.75-6.75A6.75,6.75,0,0,1,547.39,323.81Z"/><rect class="cls-1" x="293.65" y="410.18" width="21.33" height="21.33"/><polyline class="cls-3" points="70 553.93 157 589.93 157 447.93 70 553.93"/><polygon class="cls-4" points="0 494.93 42 540.93 21 603.93 168 567.93 143 453.93 0 494.93"/><polygon class="cls-4" points="793.09 503.89 746.52 545.25 760.82 610.1 618.38 558.93 655.16 448.17 793.09 503.89"/><polyline class="cls-3" points="70 553.93 157 589.93 157 447.93 70 553.93"/><polyline class="cls-3" points="710 553.93 623 589.93 623 447.93 710 553.93"/><polygon class="cls-1" points="117 506.93 669 506.93 669 668.93 393 843.93 117 675.93 117 506.93"/><path class="cls-5" d="M70,553.93s300-87,640,0l21-129s-338-98.41-678,0Z"/><path class="cls-6" d="M426,740.45q-7.86,7.69-15.72,15.37a1.22,1.22,0,0,0-.39,1.23q1.83,10.49,3.62,21a1.33,1.33,0,0,1-.52,1.42,1.37,1.37,0,0,1-1.56,0l-12.17-6.39c-2.21-1.17-4.43-2.32-6.64-3.5a1.2,1.2,0,0,0-1.3,0q-9.27,4.89-18.57,9.76a3.58,3.58,0,0,1-.79.33,1.3,1.3,0,0,1-1.49-1.65q.58-3.46,1.19-6.93,1.21-7.1,2.45-14.19a1.11,1.11,0,0,0-.41-1.1L358.52,741a1.74,1.74,0,0,1-.56-.8,1.31,1.31,0,0,1,1.15-1.63c3.08-.46,6.17-.9,9.26-1.34l12.08-1.75a1.13,1.13,0,0,0,.89-.77q4.56-9.27,9.13-18.52c.08-.16.17-.32.24-.48a1.32,1.32,0,0,1,1.31-.94,1.37,1.37,0,0,1,1.24.94L399.32,728c1.11,2.25,2.22,4.49,3.31,6.74a1.27,1.27,0,0,0,1.09.8q6.63.93,13.26,1.91c2.56.37,5.12.76,7.68,1.12a1.66,1.66,0,0,1,1.34.85Z"/><text class="cls-7" transform="translate(249.02 636.16)">R<tspan class="cls-8" x="98.39" y="0">P</tspan><tspan class="cls-9" x="184.3" y="0">A</tspan><tspan class="cls-10"><tspan x="-6.01" y="49.35">CONSU</tspan><tspan class="cls-11" x="156.12" y="49.35">L</tspan><tspan class="cls-12" x="175.89" y="49.35">T</tspan><tspan x="200.15" y="49.35">ANT</tspan></tspan></text><text class="cls-13" transform="translate(161.98 512.48) rotate(-7.98)">W</text><text class="cls-13" transform="translate(284.26 496.5) rotate(-3.43)">Y</text><text class="cls-13" transform="translate(372.91 490.92) rotate(0.74)">W</text><text class="cls-13" transform="translate(496 492.91) rotate(5.67)">M</text></g></g></g></svg>