<svg xmlns="http://www.w3.org/2000/svg" viewBox="0 0 793.09 801.81"><defs><style>.cls-1{fill:#334e68;}.cls-2{fill:#345260;}.cls-3{fill:#00a97d;}.cls-4{fill:#00b183;}.cls-5{fill:#d9e2ec;}.cls-6{font-size:145.12px;}.cls-12,.cls-6{fill:#fff;font-family:ProximaNova-Black, Proxima Nova;font-weight:800;}.cls-7{letter-spacing:-0.07em;}.cls-8{letter-spacing:0em;}.cls-9{font-size:45.35px;}.cls-10{letter-spacing:-0.13em;}.cls-11{letter-spacing:-0.02em;}.cls-12{font-size:120px;}</style></defs><title>RPA Analyst</title><g id="Layer_2" data-name="Layer 2"><g id="DESIGN_3"><g id="Layer_6_copy" data-name="Layer 6 copy"><path class="cls-1" d="M467.45,495.83H316.55a8.09,8.09,0,1,0,0,16.17h150.9a8.09,8.09,0,1,0,0-16.17Z"/><path class="cls-1" d="M607.58,291a40.44,40.44,0,0,0-9.6,1.15l-43.26-72.67A121.27,121.27,0,0,0,441.05,7.72,158.86,158.86,0,0,0,392,0C304.33,0,233,71.32,233,159v21.56a51.26,51.26,0,0,0,51.2,51.2H433.63A121.86,121.86,0,0,0,541,228.1l42.3,71a40.37,40.37,0,0,0-16.15,32.3c0,.91,0,1.8.09,2.7H515.53l7-27.85a29.64,29.64,0,0,0-28.75-36.83H290.26a29.64,29.64,0,0,0-28.75,36.83l7,27.85H216.75q.09-1.33.09-2.7a40.42,40.42,0,1,0-48.5,39.61v70.87H156.81a18.87,18.87,0,0,0-18.61,22l6.89,41.34A8.09,8.09,0,1,0,161,502.58l-6.89-41.34a2.7,2.7,0,0,1,2.66-3.14H196a2.7,2.7,0,0,1,2.66,3.14l-6.89,41.34a8.09,8.09,0,0,0,6.64,9.31,8.75,8.75,0,0,0,1.34.11,8.09,8.09,0,0,0,8-6.76l6.89-41.34a18.88,18.88,0,0,0-18.61-22H184.5V371.06a40.57,40.57,0,0,0,27.66-20.75h60.35l17.25,69a51.13,51.13,0,0,0,49.67,38.78H444.57a51.13,51.13,0,0,0,49.67-38.78l17.25-69h60.35A40.42,40.42,0,1,0,607.58,291ZM284.21,215.58a35.07,35.07,0,0,1-35-35V159c0-78.75,64.07-142.82,142.82-142.82a143.71,143.71,0,0,1,26.9,2.53,121.29,121.29,0,0,0-51.14,66.84,40.42,40.42,0,1,0,0,71.45,120.52,120.52,0,0,0,30.11,50,125.22,125.22,0,0,0,9.52,8.57Zm79.7-75.28a24,24,0,0,1-15,5.22,24.26,24.26,0,0,1,0-48.51,24,24,0,0,1,15,5.21A122.19,122.19,0,0,0,363.91,140.3Zm45.4,55.28a105.09,105.09,0,1,1,148.62,0A105.21,105.21,0,0,1,409.31,195.58ZM176.42,355.7a24.25,24.25,0,1,1,24.25-24.25A24.28,24.28,0,0,1,176.42,355.7Zm330.39-53.32-7.94,31.77H413.56a8.08,8.08,0,1,0,0,16.16h81.26L478.55,415.4a35,35,0,0,1-34,26.53H339.43a35,35,0,0,1-34-26.53l-28.25-113a13.47,13.47,0,0,1,13.07-16.74H493.73a13.48,13.48,0,0,1,13.08,16.74ZM607.58,355.7a24.3,24.3,0,0,1-22.82-16l-.1-.28a24.27,24.27,0,0,1,12.9-30l.23-.11a24.25,24.25,0,1,1,9.79,46.44Z"/><path class="cls-1" d="M327.32,376.18a8.09,8.09,0,0,0-8.08,8.09v1.08a8.09,8.09,0,0,0,16.17,0v-1.08A8.09,8.09,0,0,0,327.32,376.18Z"/><path class="cls-1" d="M445.89,393.43a8.09,8.09,0,0,0,8.09-8.08v-1.08a8.09,8.09,0,1,0-16.17,0v1.08A8.08,8.08,0,0,0,445.89,393.43Z"/><path class="cls-1" d="M542.69,62.19a83.53,83.53,0,1,0,24.47,59.07A83,83,0,0,0,542.69,62.19ZM531.26,168.9A67.37,67.37,0,1,1,551,121.26,67,67,0,0,1,531.26,168.9Z"/><path class="cls-1" d="M359.66,376.18a8.09,8.09,0,0,0-8.08,8.09v1.08a8.09,8.09,0,0,0,16.17,0v-1.08A8.09,8.09,0,0,0,359.66,376.18Z"/><path class="cls-1" d="M348.88,301.81H327.32a18.88,18.88,0,0,0-18.86,18.86v21.56a18.88,18.88,0,0,0,18.86,18.86h21.56a18.89,18.89,0,0,0,18.87-18.86V320.67A18.89,18.89,0,0,0,348.88,301.81Zm2.7,40.42a2.7,2.7,0,0,1-2.7,2.7H327.32a2.7,2.7,0,0,1-2.69-2.7V320.67a2.7,2.7,0,0,1,2.69-2.69h21.56a2.69,2.69,0,0,1,2.7,2.69Z"/><rect class="cls-1" x="293.65" y="368.06" width="21.33" height="21.33"/><polyline class="cls-2" points="70 511.81 157 547.8 157 405.81 70 511.81"/><polygon class="cls-3" points="0 452.81 42 498.81 21 561.8 168 525.8 143 411.81 0 452.81"/><polygon class="cls-3" points="793.09 461.77 746.52 503.13 760.82 567.98 618.38 516.81 655.16 406.05 793.09 461.77"/><polyline class="cls-2" points="70 511.81 157 547.8 157 405.81 70 511.81"/><polyline class="cls-2" points="710 511.81 623 547.8 623 405.81 710 511.81"/><polygon class="cls-1" points="117 464.81 669 464.81 669 626.8 393 801.8 117 633.8 117 464.81"/><path class="cls-4" d="M70,511.81s300-87,640,0l21-129s-338-98.41-678,0Z"/><path class="cls-5" d="M426,698.33q-7.86,7.68-15.72,15.36a1.23,1.23,0,0,0-.39,1.24q1.83,10.49,3.62,21a1.33,1.33,0,0,1-.52,1.42,1.39,1.39,0,0,1-1.56,0c-4.05-2.14-8.11-4.26-12.17-6.4-2.21-1.16-4.43-2.31-6.64-3.5a1.24,1.24,0,0,0-1.3,0q-9.27,4.9-18.57,9.77a3.58,3.58,0,0,1-.79.33,1.3,1.3,0,0,1-1.49-1.65q.58-3.46,1.19-6.93,1.21-7.1,2.45-14.19a1.12,1.12,0,0,0-.41-1.11l-15.18-14.78a1.74,1.74,0,0,1-.56-.8,1.31,1.31,0,0,1,1.15-1.63c3.08-.46,6.17-.9,9.26-1.34q6-.89,12.08-1.75a1.13,1.13,0,0,0,.89-.77q4.56-9.27,9.13-18.52c.08-.16.17-.32.24-.48a1.32,1.32,0,0,1,1.31-.94,1.36,1.36,0,0,1,1.24.94l6.06,12.26c1.11,2.25,2.22,4.48,3.31,6.74a1.24,1.24,0,0,0,1.09.79L417,695.3c2.56.37,5.12.76,7.68,1.12a1.64,1.64,0,0,1,1.34.85Z"/><text class="cls-6" transform="translate(249.02 594.03)">R<tspan class="cls-7" x="98.39" y="0">P</tspan><tspan class="cls-8" x="184.3" y="0">A</tspan><tspan class="cls-9"><tspan x="43.26" y="49.35">ANA</tspan><tspan class="cls-10" x="141.67" y="49.35">L</tspan><tspan class="cls-11" x="160.09" y="49.35">Y</tspan><tspan x="189.29" y="49.35">ST</tspan></tspan></text><text class="cls-12" transform="translate(161.98 470.36) rotate(-7.98)">W</text><text class="cls-12" transform="translate(284.26 454.38) rotate(-3.43)">Y</text><text class="cls-12" transform="translate(372.91 448.8) rotate(0.74)">W</text><text class="cls-12" transform="translate(496 450.79) rotate(5.67)">M</text></g></g></g></svg>