<svg id="Capa_1" data-name="Capa 1" xmlns="http://www.w3.org/2000/svg" viewBox="0 0 512 512"><defs><style>.cls-1{fill:#627d98;}.cls-2{fill:#334e68;}.cls-3{fill:#27ab83;}.cls-4{fill:#147d64;}.cls-5{fill:#b3e5ee;}.cls-6{fill:#86d7e5;}.cls-7{fill:#effcf6;}.cls-8{fill:#102a43;}</style></defs><path class="cls-1" d="M386.29,503.8V176.89a7,7,0,0,0-7.05-7H295.68a9.64,9.64,0,0,0-9.64,9.64V503.8Z"/><path class="cls-2" d="M313.1,272.67V213.16a18.71,18.71,0,0,1,18.71-18.7h54.48V176.89a7,7,0,0,0-7.05-7H295.68a9.64,9.64,0,0,0-9.64,9.64V503.8H313.1Z"/><path class="cls-3" d="M492.45,503.8H392.19V132.56a7.06,7.06,0,0,1,7.06-7.06h86.14a7.06,7.06,0,0,1,7.06,7.06V503.8Z"/><path class="cls-4" d="M415.49,161a13.36,13.36,0,0,1,13.37-13.37h57.69V132.56a7.06,7.06,0,0,0-7.06-7.06H393.35a7.06,7.06,0,0,0-7.06,7.06V503.79h29.2Z"/><path class="cls-3" d="M301.88,503.8V255.1a7.06,7.06,0,0,0-7.06-7H208.68a7.06,7.06,0,0,0-7.06,7V503.8Z"/><path class="cls-4" d="M223.34,281a11,11,0,0,1,11-11H296V255.1a7.06,7.06,0,0,0-7.06-7H202.78a7.06,7.06,0,0,0-7.06,7V503.79h27.62Z"/><circle class="cls-5" cx="256.56" cy="111.69" r="103.6"/><path class="cls-6" d="M299.32,202.26A103.61,103.61,0,0,1,248.43,8.41a103.6,103.6,0,1,0,59,193.54C304.76,202.16,302.06,202.26,299.32,202.26Z"/><path class="cls-7" d="M201.86,177.69a15.25,15.25,0,0,1,0,30.49H146.71a6.72,6.72,0,0,0-5,2.24L126,228.15a4,4,0,0,0,3,6.74h17.55a13.47,13.47,0,0,1,12.68,18l-18.68,51.94a3.72,3.72,0,0,1-3.51,2.47H118.56a3.72,3.72,0,0,1-3.56-4.84l10-31.88a5.59,5.59,0,0,0-5.33-7.26H104.5a5.59,5.59,0,0,0-5,3.12L53.54,359.36a3.75,3.75,0,0,1-3.35,2.08H29a3.75,3.75,0,0,1-3.44-5.21l40.71-95v-23.8A52.92,52.92,0,0,1,80.81,201l27.25-28.66a22.68,22.68,0,0,1,16.45-7.06h24.92l10.3,12.7Z"/><path class="cls-1" d="M209.86,503.64V314.39a7,7,0,0,0-7.05-7.05H116.66a7,7,0,0,0-7,7.05V503.64Z"/><path class="cls-2" d="M141.28,335.74a7.06,7.06,0,0,1,7.06-7.05h61.52v-14.3a7,7,0,0,0-7.05-7.05H116.66a7,7,0,0,0-7,7.05V503.64h31.67V335.74Z"/><path class="cls-3" d="M138.13,503.64H37.87V368.49a7.06,7.06,0,0,1,7.06-7.05h86.14a7.06,7.06,0,0,1,7.06,7.05V503.64Z"/><path class="cls-4" d="M55.89,390.5A7.06,7.06,0,0,1,63,383.44h69.28V368.49a7.06,7.06,0,0,0-7.06-7.05H39a7,7,0,0,0-7,7.05V503.64H55.89V390.5Z"/><circle class="cls-7" cx="152.74" cy="165.27" r="18.82"/><path class="cls-8" d="M504.51,497H494.29V208.83a7.5,7.5,0,0,0-15,0V497H394V133.68H479.3V176.9a7.5,7.5,0,0,0,15,0V133.25a14.57,14.57,0,0,0-14.55-14.55H393.6a14.57,14.57,0,0,0-14.55,14.55V163H356q1.22-2.35,2.33-4.77A111.69,111.69,0,0,0,163,51.08a112.6,112.6,0,0,0-17.79,66.49,7.48,7.48,0,0,0,7.48,7.1h.42a7.5,7.5,0,0,0,7-9.76,97.66,97.66,0,0,1,15.5-55.69A96.7,96.7,0,0,1,344.72,152,96.75,96.75,0,0,1,243.05,207.5a7.49,7.49,0,0,0-2.14,14.83,110.06,110.06,0,0,0,15.8,1.13,111.45,111.45,0,0,0,22.08-2.23v20H203a14.56,14.56,0,0,0-14.55,14.54v44.74H150.57l16-44.39a21,21,0,0,0-19.73-28.06h-9.89l10.41-11.72h54.79a22.74,22.74,0,0,0,0-45.47H178.83a26.75,26.75,0,0,0,.47-4.93,26.31,26.31,0,0,0-51.53-7.49h-3a30.29,30.29,0,0,0-21.88,9.39L75.63,196.52A60.13,60.13,0,0,0,59,238.13V260.4L18.91,354a11.18,11.18,0,0,0,5.85,14.71c0,.17,0,.34,0,.51V497H7.49a7.5,7.5,0,0,0,0,15h497a7.5,7.5,0,0,0,0-15ZM288.73,256.23v43.14a7.5,7.5,0,1,0,15,0V255.79A14.55,14.55,0,0,0,293.78,242V217.12c.65-.23,1.3-.44,2-.68a110.89,110.89,0,0,0,51-38.42h32.3V497H303.72V331.3a7.49,7.49,0,1,0-15,0V497H217.6V315.08a14.55,14.55,0,0,0-14.13-14.53V256.23ZM153,154.63A11.33,11.33,0,1,1,141.66,166,11.35,11.35,0,0,1,153,154.63ZM73.38,264.89a7.53,7.53,0,0,0,.61-2.95v-23.8a45.25,45.25,0,0,1,12.5-31.3l27.25-28.66a15.27,15.27,0,0,1,11-4.72h3a26.3,26.3,0,0,0,42.39,12.42h32a7.75,7.75,0,0,1,0,15.5H147a14.19,14.19,0,0,0-10.6,4.76l-15.74,17.73a11.54,11.54,0,0,0,8.63,19.2H146.8a6,6,0,0,1,5.62,8l-17.78,49.47H123.92l8.43-27a13.09,13.09,0,0,0-12.49-17H104.75A13,13,0,0,0,93,263.84l-44.91,90.8H34.92Zm-8.56,89.74,41.11-83.09h11.35l-9.19,29.4a11.17,11.17,0,0,0-.48,3,14.5,14.5,0,0,0-5.25,11.17v39.55Zm-25.1,15H125v41a7.49,7.49,0,0,0,15,0V369.18a14.56,14.56,0,0,0-14.55-14.54h-8.07V315.52h85.27V497H140V442.56a7.49,7.49,0,1,0-15,0V497H39.72Z"/></svg>