<svg xmlns="http://www.w3.org/2000/svg" viewBox="0 0 793.09 825.3"><defs><style>.cls-1{fill:#334e68;}.cls-2{fill:#345260;}.cls-3{fill:#00a97d;}.cls-4{fill:#00b183;}.cls-5{fill:#d9e2ec;}.cls-6{font-size:80px;}.cls-6,.cls-8{fill:#fff;font-family:ProximaNova-Black, Proxima Nova;font-weight:800;}.cls-7{letter-spacing:-0.06em;}.cls-8{font-size:120px;}</style></defs><title>Threat hunter</title><g id="Layer_2" data-name="Layer 2"><g id="DESIGN_3"><g id="Layer_6_copy" data-name="Layer 6 copy"><path class="cls-1" d="M640,0H304V39c-46.54,16.53-80,60.87-80,113v64a39.93,39.93,0,0,0,37.41,39.74A134,134,0,0,0,304,321.21v10.1a24,24,0,0,1-14.15,21.88l-82.77,37.25A107.16,107.16,0,0,0,144,488v8H544v-8a107.16,107.16,0,0,0-63.08-97.56L466.62,384H640ZM344,48A104.13,104.13,0,0,1,448,152v32.21A39.58,39.58,0,0,0,424,176h-.21A39.82,39.82,0,0,0,392,160H335.26a68.66,68.66,0,0,1-38.18-11.56,26.42,26.42,0,0,0-41.08,22v6.39a39.6,39.6,0,0,0-16,7.39V152A104.13,104.13,0,0,1,344,48Zm87.32,145.26a23.85,23.85,0,0,1-1,45.78A137.64,137.64,0,0,0,432,217.83V200A39.48,39.48,0,0,0,431.32,193.26ZM240,216a24,24,0,0,1,16-22.53v24.36A137.83,137.83,0,0,0,257.66,239,24,24,0,0,1,240,216Zm32,1.83V170.42a10.43,10.43,0,0,1,16.21-8.67A84.53,84.53,0,0,0,335.26,176H392a24,24,0,0,1,24,24v17.83a118.68,118.68,0,0,1-72,109.51A118.66,118.66,0,0,1,272,217.83Zm69,125.6,3,1.19,3-1.19A136.92,136.92,0,0,0,368.1,332.7,39.84,39.84,0,0,0,372.23,349L344,386.66,315.78,349a39.9,39.9,0,0,0,4.12-16.34A137,137,0,0,0,341,343.43Zm68.15,32.27,6.14,36.82-34.17,25.62,15.54,23.32L365.78,480h-2.23l40.11-106.78ZM291.31,461.46l15.54-23.32-34.17-25.62,6.14-36.82,5.52-2.48L324.45,480h-2.23ZM333,398.72l-16.77,14L298.9,366.45a39.47,39.47,0,0,0,6.64-4.41Zm-10.82,29.84L344,410.42l21.78,18.14L346.46,480h-4.92Zm49.52-15.86-16.78-14L382.47,362a39.79,39.79,0,0,0,6.63,4.41ZM213.64,405l47.66-21.44-6,35.9,29.83,22.37-16.46,24.69L291.11,480H224V432H208v48H160.35A91.15,91.15,0,0,1,213.64,405Zm314,75H480V432H464v48H396.89l22.42-13.46-16.46-24.68,29.83-22.38-6-35.9L474.35,405A91.17,91.17,0,0,1,527.65,480ZM624,368H431.06l-32.91-14.81A24,24,0,0,1,384,331.31v-10.1a134,134,0,0,0,42.59-65.47A39.93,39.93,0,0,0,464,216V152A120,120,0,0,0,320,34.42V16H624Z"/><path class="cls-1" d="M560,352h48V208H560Zm16-128h16V336H576Z"/><path class="cls-1" d="M496,352h48V192H496Zm16-144h16V336H512Z"/><path class="cls-1" d="M432,352h48V272H432Zm16-64h16v48H448Z"/><rect class="cls-1" x="293.65" y="391.55" width="21.33" height="21.33"/><polyline class="cls-2" points="70 535.3 157 571.3 157 429.3 70 535.3"/><polygon class="cls-3" points="0 476.3 42 522.3 21 585.3 168 549.3 143 435.3 0 476.3"/><polygon class="cls-3" points="793.09 485.26 746.52 526.62 760.82 591.47 618.38 540.3 655.16 429.54 793.09 485.26"/><polyline class="cls-2" points="70 535.3 157 571.3 157 429.3 70 535.3"/><polyline class="cls-2" points="710 535.3 623 571.3 623 429.3 710 535.3"/><polygon class="cls-1" points="117 488.3 669 488.3 669 650.3 393 825.3 117 657.3 117 488.3"/><path class="cls-4" d="M70,535.3s300-87,640,0l21-129s-338-98.41-678,0Z"/><path class="cls-5" d="M426,721.82q-7.86,7.7-15.72,15.37a1.22,1.22,0,0,0-.39,1.23q1.83,10.49,3.62,21a1.32,1.32,0,0,1-.52,1.41,1.37,1.37,0,0,1-1.56,0l-12.17-6.39c-2.21-1.17-4.43-2.32-6.64-3.5a1.22,1.22,0,0,0-1.3,0q-9.27,4.89-18.57,9.76a3.58,3.58,0,0,1-.79.33,1.3,1.3,0,0,1-1.49-1.65q.58-3.46,1.19-6.93,1.21-7.1,2.45-14.19a1.11,1.11,0,0,0-.41-1.1l-15.18-14.79a1.74,1.74,0,0,1-.56-.8,1.31,1.31,0,0,1,1.15-1.63l9.26-1.34,12.08-1.75c.49-.06.69-.37.89-.77q4.56-9.27,9.13-18.52c.08-.16.17-.32.24-.48a1.34,1.34,0,0,1,1.31-.94,1.37,1.37,0,0,1,1.24.94l6.06,12.26c1.11,2.25,2.22,4.49,3.31,6.74a1.27,1.27,0,0,0,1.09.8q6.63.93,13.26,1.91c2.56.37,5.12.76,7.68,1.12a1.66,1.66,0,0,1,1.34.85Z"/><text class="cls-6" transform="translate(238.34 590.21)">THRE<tspan class="cls-7" x="209.6" y="0">A</tspan><tspan x="261.6" y="0">T</tspan><tspan x="-10.16" y="75">HUNTER</tspan></text><text class="cls-8" transform="translate(161.98 493.86) rotate(-7.98)">W</text><text class="cls-8" transform="translate(284.26 477.87) rotate(-3.43)">Y</text><text class="cls-8" transform="translate(372.91 472.29) rotate(0.74)">W</text><text class="cls-8" transform="translate(496 474.28) rotate(5.67)">M</text><path class="cls-1" d="M518.26,140l-32,9a13.08,13.08,0,0,0-3.23-3,5.46,5.46,0,0,0-5.94,9.16,2.43,2.43,0,0,1,.66,3.25,5.46,5.46,0,0,0,9.35,5.64v0a13.24,13.24,0,0,0,1.65-4.37l33.72-9.5a5.84,5.84,0,0,0,1.25.14h43.66a5.75,5.75,0,0,0,1.24-.14l33.73,9.5A13.22,13.22,0,0,0,604,164a5.46,5.46,0,0,0,9.36-5.62,2.44,2.44,0,0,1,.66-3.24,5.46,5.46,0,0,0-5.94-9.16,13,13,0,0,0-3.23,3l-32-9V136l32-9a12.93,12.93,0,0,0,3.23,3,5.46,5.46,0,0,0,5.94-9.16,2.45,2.45,0,0,1-.66-3.25,5.46,5.46,0,1,0-9.31-5.69.35.35,0,0,0,0,.08,13.25,13.25,0,0,0-1.64,4.35l-9.2,2.59a16.32,16.32,0,0,0,1.52-6.88V84.76a49.12,49.12,0,0,0-98.24,0v27.29a16.05,16.05,0,0,0,1.52,6.88l-9.21-2.59a13.37,13.37,0,0,0-1.63-4.36,5.46,5.46,0,0,0-9.37,5.62,2.43,2.43,0,0,1-.66,3.25A5.46,5.46,0,1,0,483,130a13,13,0,0,0,3.24-3l32,9ZM507.34,84.76a38.21,38.21,0,0,1,76.41,0v27.29a5.47,5.47,0,0,1-5.46,5.46H567.38a5.45,5.45,0,0,0-5.46,5.46v16.37H529.17V123a5.45,5.45,0,0,0-5.45-5.46H512.8a5.47,5.47,0,0,1-5.46-5.46Z"/></g></g></g></svg>